<svg width="56" height="56" viewBox="0 0 56 56" fill="none" xmlns="http://www.w3.org/2000/svg">
<circle cx="28" cy="28" r="28" fill="#F4F7FE"/>
<g clip-path="url(#clip0_1770_11239)">
<path d="M20.2869 24.3137H20.5605C21.6142 24.3137 22.4763 25.1758 22.4763 26.2295V35.8083C22.4763 36.862 21.6142 37.724 20.5605 37.724H20.2869C19.2332 37.724 18.3711 36.862 18.3711 35.8083V26.2295C18.3711 25.1758 19.2332 24.3137 20.2869 24.3137V24.3137ZM27.9499 18.5664C29.0036 18.5664 29.8657 19.4285 29.8657 20.4822V35.8083C29.8657 36.862 29.0036 37.724 27.9499 37.724C26.8962 37.724 26.0342 36.862 26.0342 35.8083V20.4822C26.0342 19.4285 26.8962 18.5664 27.9499 18.5664ZM35.613 29.5136C36.6666 29.5136 37.5287 30.3757 37.5287 31.4294V35.8083C37.5287 36.862 36.6666 37.724 35.613 37.724C34.5593 37.724 33.6972 36.862 33.6972 35.8083V31.4294C33.6972 30.3757 34.5593 29.5136 35.613 29.5136V29.5136Z" fill="#4318FF"/>
</g>
<defs>
<clipPath id="clip0_1770_11239">
<rect width="32.8417" height="32.8417" fill="white" transform="translate(11.5273 11.7246)"/>
</clipPath>
</defs>
</svg>
