<svg width="24" height="25" viewBox="0 0 24 25" fill="none" xmlns="http://www.w3.org/2000/svg">
<path d="M12 4.66699C7.584 4.66699 4 8.25099 4 12.667C4 17.083 7.584 20.667 12 20.667C16.416 20.667 20 17.083 20 12.667C20 8.25099 16.424 4.66699 12 4.66699ZM16.344 16.211C15.36 17.627 13.744 18.467 12.024 18.467C10.304 18.467 8.688 17.627 7.704 16.211C7.512 15.939 7.584 15.563 7.856 15.379C8.128 15.187 8.504 15.259 8.688 15.531C9.448 16.619 10.696 17.275 12.024 17.275C13.352 17.275 14.6 16.627 15.36 15.531C15.552 15.259 15.92 15.195 16.192 15.379C16.472 15.563 16.536 15.939 16.344 16.211Z" fill="#808080" fill-opacity="0.55"/>
</svg>
