<svg width="24" height="24" viewBox="0 0 24 24" fill="none" xmlns="http://www.w3.org/2000/svg">
  <g clip-path="url(#clip0_1770_11230)">
    <path d="M14.9285 9H15.0005C16.6545 9 18.0005 7.654 18.0005 6V3C18.0005 1.346 16.6545 0 15.0005 0H9.00052C7.34652 0 6.00052 1.346 6.00052 3V6C6.00052 7.654 7.34652 9 9.00052 9H9.20252L11.0365 10.617C11.3265 10.873 11.6895 11.001 12.0525 11.001C12.4105 11.001 12.7685 10.875 13.0505 10.625L14.9285 9.001V9ZM5.50052 18C7.43052 18 9.00052 16.43 9.00052 14.5C9.00052 12.57 7.43052 11 5.50052 11C3.57052 11 2.00052 12.57 2.00052 14.5C2.00052 16.43 3.57052 18 5.50052 18ZM15.0005 14.5C15.0005 16.43 16.5705 18 18.5005 18C20.4305 18 22.0005 16.43 22.0005 14.5C22.0005 12.57 20.4305 11 18.5005 11C16.5705 11 15.0005 12.57 15.0005 14.5ZM5.50052 19C3.06652 19 0.882519 20.466 0.0635193 22.649C-0.0514807 22.956 -0.00848071 23.3 0.177519 23.57C0.365519 23.84 0.671519 24 0.999519 24H9.99952C10.3275 24 10.6345 23.839 10.8215 23.57C11.0085 23.3 11.0505 22.956 10.9355 22.649C10.1175 20.466 7.93252 19 5.49852 19H5.50052ZM23.9375 22.649C23.1195 20.466 20.9345 19 18.5005 19C16.0665 19 13.8825 20.466 13.0635 22.649C12.9485 22.956 12.9915 23.3 13.1775 23.57C13.3655 23.84 13.6715 24 13.9995 24H22.9995C23.3275 24 23.6345 23.839 23.8215 23.57C24.0085 23.3 24.0505 22.956 23.9355 22.649H23.9375Z" fill="#B7B7B7"/>
  </g>
  <defs>
    <clipPath id="clip0_1770_11230">
      <rect width="24" height="24" fill="white"/>
    </clipPath>
  </defs>
</svg>
