<svg width="24" height="24" viewBox="0 0 24 24" fill="none" xmlns="http://www.w3.org/2000/svg">
<path d="M12.7437 12C13.9863 12 14.9937 13.0074 14.9937 14.25L14.9925 15.3725C15.1468 18.1274 13.025 19.5012 9.09029 19.5012C5.16828 19.5012 3 18.1454 3 15.4119V14.25C3 13.0074 4.00736 12 5.25 12H12.7437ZM18.7446 12C19.9872 12 20.9946 13.0074 20.9946 14.25L20.9935 15.0399C21.1291 17.5111 19.2543 18.75 15.8274 18.75C15.3622 18.75 14.9249 18.7273 14.5165 18.682C15.3215 17.9386 15.7522 16.9297 15.7507 15.6549L15.7413 15.3306L15.7437 14.25C15.7437 13.3536 15.3506 12.5491 14.7273 11.9994L18.7446 12ZM9 3C11.0714 3 12.7506 4.6792 12.7506 6.75061C12.7506 8.82201 11.0714 10.5012 9 10.5012C6.9286 10.5012 5.24939 8.82201 5.24939 6.75061C5.24939 4.6792 6.9286 3 9 3ZM16.5 4.5C18.1569 4.5 19.5 5.84315 19.5 7.5C19.5 9.15685 18.1569 10.5 16.5 10.5C14.8431 10.5 13.5 9.15685 13.5 7.5C13.5 5.84315 14.8431 4.5 16.5 4.5Z" fill="#808080" fill-opacity="0.55"/>
</svg>
