<svg width="24" height="24" viewBox="0 0 24 24" fill="none" xmlns="http://www.w3.org/2000/svg">
<path d="M13.9773 8.726C14.0767 9.02667 13.832 9.33333 13.5047 9.33333H10.4947C10.1673 9.33333 9.92267 9.02667 10.022 8.726C10.2887 7.918 11.0733 7.33333 11.9993 7.33333C12.9253 7.33333 13.7107 7.91867 13.9773 8.726ZM12 6.66667C12.7367 6.66667 13.3333 6.07 13.3333 5.33333C13.3333 4.59667 12.7367 4 12 4C11.2633 4 10.6667 4.59667 10.6667 5.33333C10.6667 6.07 11.2633 6.66667 12 6.66667ZM6 10C5.07333 10 4.28933 10.5853 4.02267 11.3927C3.92333 11.6933 4.168 12 4.49533 12H7.50533C7.83267 12 8.07733 11.6933 7.978 11.3927C7.71133 10.5847 6.926 10 6 10ZM6 9.33333C6.73667 9.33333 7.33333 8.73667 7.33333 8C7.33333 7.26333 6.73667 6.66667 6 6.66667C5.26333 6.66667 4.66667 7.26333 4.66667 8C4.66667 8.73667 5.26333 9.33333 6 9.33333ZM18 11.3333C17.0733 11.3333 16.2893 11.9187 16.0227 12.726C15.9233 13.0267 16.168 13.3333 16.4953 13.3333H19.5053C19.8327 13.3333 20.0773 13.0267 19.978 12.726C19.7113 11.918 18.926 11.3333 18 11.3333ZM18 10.6667C18.7367 10.6667 19.3333 10.07 19.3333 9.33333C19.3333 8.59667 18.7367 8 18 8C17.2633 8 16.6667 8.59667 16.6667 9.33333C16.6667 10.07 17.2633 10.6667 18 10.6667ZM14.3333 12.3333V18.3333C14.3333 19.254 13.5873 20 12.6667 20H11.3333C10.4127 20 9.66667 19.254 9.66667 18.3333V12.3333C9.66667 11.4127 10.4127 10.6667 11.3333 10.6667H12.6667C13.5873 10.6667 14.3333 11.4127 14.3333 12.3333ZM20 16.3333V18.3333C20 19.254 19.254 20 18.3333 20H17.3333C16.4127 20 15.6667 19.254 15.6667 18.3333V16.3333C15.6667 15.4127 16.4127 14.6667 17.3333 14.6667H18.3333C19.254 14.6667 20 15.4127 20 16.3333ZM8.33333 15V18.3333C8.33333 19.254 7.58733 20 6.66667 20H5.66667C4.746 20 4 19.254 4 18.3333V15C4 14.0793 4.746 13.3333 5.66667 13.3333H6.66667C7.58733 13.3333 8.33333 14.0793 8.33333 15Z" fill="white"/>
</svg>
