<svg width="24" height="24" viewBox="0 0 24 24" fill="none" xmlns="http://www.w3.org/2000/svg">
<path d="M16.6667 6.66667H15.9333C15.7786 5.91428 15.3692 5.23823 14.7742 4.75248C14.1791 4.26673 13.4348 4.00097 12.6667 4L11.3333 4C10.5652 4.00097 9.82088 4.26673 9.22583 4.75248C8.63079 5.23823 8.2214 5.91428 8.06667 6.66667H7.33333C6.4496 6.66773 5.60237 7.01925 4.97748 7.64415C4.35259 8.26904 4.00106 9.11627 4 10L4 12H20V10C19.9989 9.11627 19.6474 8.26904 19.0225 7.64415C18.3976 7.01925 17.5504 6.66773 16.6667 6.66667ZM9.456 6.66667C9.59339 6.27806 9.84749 5.94139 10.1835 5.70273C10.5196 5.46406 10.9212 5.33504 11.3333 5.33333H12.6667C13.0788 5.33504 13.4804 5.46406 13.8165 5.70273C14.1525 5.94139 14.4066 6.27806 14.544 6.66667H9.456Z" fill="white"/>
<path d="M12.6667 13.6667C12.6667 13.8435 12.5964 14.013 12.4714 14.1381C12.3464 14.2631 12.1768 14.3333 12 14.3333C11.8232 14.3333 11.6536 14.2631 11.5286 14.1381C11.4036 14.013 11.3333 13.8435 11.3333 13.6667V13H4V16.3333C4.00106 17.2171 4.35259 18.0643 4.97748 18.6892C5.60237 19.3141 6.4496 19.6656 7.33333 19.6667H16.6667C17.5504 19.6656 18.3976 19.3141 19.0225 18.6892C19.6474 18.0643 19.9989 17.2171 20 16.3333V13H12.6667V13.6667Z" fill="white"/>
</svg>
