<svg width="24" height="24" viewBox="0 0 24 24" fill="none" xmlns="http://www.w3.org/2000/svg">
<g clip-path="url(#clip0_1742_11187)">
<path d="M14 7V0.46C14.91 0.81 15.75 1.34 16.46 2.05L19.94 5.54C20.65 6.25 21.18 7.09 21.53 8H14.99C14.44 8 13.99 7.55 13.99 7H14ZM22 10.49V19C22 21.76 19.76 24 17 24H7C4.24 24 2 21.76 2 19V5C2 2.24 4.24 0 7 0H11.51C11.67 0 11.83 0.01 12 0.02V7C12 8.65 13.35 10 15 10H21.98C21.99 10.16 22 10.32 22 10.49ZM13.3 17L15.27 14.64C15.62 14.22 15.57 13.59 15.14 13.23C14.71 12.88 14.09 12.93 13.73 13.36L12 15.44L10.27 13.36C9.92 12.94 9.29 12.88 8.86 13.23C8.44 13.58 8.38 14.21 8.73 14.64L10.7 17L8.73 19.36C8.38 19.78 8.43 20.41 8.86 20.77C9.05 20.93 9.27 21 9.5 21C9.79 21 10.07 20.88 10.27 20.64L12 18.56L13.73 20.64C13.93 20.88 14.21 21 14.5 21C14.73 21 14.95 20.92 15.14 20.77C15.56 20.42 15.62 19.79 15.27 19.36L13.3 17Z" fill="white"/>
</g>
<defs>
<clipPath id="clip0_1742_11187">
<rect width="24" height="24" fill="white"/>
</clipPath>
</defs>
</svg>
