<svg width="24" height="24" viewBox="0 0 24 24" fill="none" xmlns="http://www.w3.org/2000/svg">
<path d="M16.8789 10C14.2589 10 12.1289 12.13 12.1289 14.75C12.1289 15.64 12.3789 16.48 12.8189 17.2C13.6389 18.58 15.1489 19.5 16.8789 19.5C18.6089 19.5 20.1189 18.57 20.9389 17.2C21.3789 16.49 21.6289 15.64 21.6289 14.75C21.6289 12.13 19.5089 10 16.8789 10ZM18.6589 15.48H17.6289V16.55C17.6289 16.96 17.2889 17.3 16.8789 17.3C16.4689 17.3 16.1289 16.96 16.1289 16.55V15.48H15.1089C14.6989 15.48 14.3589 15.14 14.3589 14.73C14.3589 14.32 14.6989 13.98 15.1089 13.98H16.1289V13C16.1289 12.59 16.4689 12.25 16.8789 12.25C17.2889 12.25 17.6289 12.59 17.6289 13V13.98H18.6589C19.0689 13.98 19.4089 14.32 19.4089 14.73C19.4089 15.14 19.0689 15.48 18.6589 15.48Z" fill="#292D32"/>
<path d="M20.5819 4.02V6.24C20.5819 7.05 20.0819 8.06 19.5819 8.57L19.4019 8.73C19.2619 8.86 19.0519 8.89 18.8719 8.83C18.6719 8.76 18.4719 8.71 18.2719 8.66C17.8319 8.55 17.3619 8.5 16.8819 8.5C13.4319 8.5 10.6319 11.3 10.6319 14.75C10.6319 15.89 10.9419 17.01 11.5319 17.97C12.0319 18.81 12.7319 19.51 13.4919 19.98C13.7219 20.13 13.8119 20.45 13.6119 20.63C13.5419 20.69 13.4719 20.74 13.4019 20.79L12.0019 21.7C10.7019 22.51 8.91187 21.6 8.91187 19.98V14.63C8.91187 13.92 8.51187 13.01 8.11187 12.51L4.32188 8.47C3.82188 7.96 3.42188 7.05 3.42188 6.45V4.12C3.42188 2.91 4.32187 2 5.41187 2H18.5919C19.6819 2 20.5819 2.91 20.5819 4.02Z" fill="#292D32"/>
</svg>
